<svg width="35" height="26" fill="none" xmlns="http://www.w3.org/2000/svg"><path d="M10.656 6.34c-4.64 0-8.413 3.775-8.413 8.414 0 4.638 3.774 8.412 8.413 8.412s8.413-3.774 8.413-8.412c0-4.64-3.774-8.413-8.413-8.413zm0 11.779a3.365 3.365 0 110-6.73 3.365 3.365 0 010 6.73z" fill="#F0BC5E"/><path d="M10.656 10.828a3.93 3.93 0 00-3.926 3.926 3.931 3.931 0 003.926 3.926 3.931 3.931 0 003.926-3.926 3.93 3.93 0 00-3.926-3.926zm0 6.73a2.808 2.808 0 01-2.804-2.804 2.807 2.807 0 012.804-2.805 2.807 2.807 0 012.804 2.805 2.808 2.808 0 01-2.804 2.804z" fill="#000"/><path d="M25.721 14.748L35 5.214 30.286.5 20.88 9.907l-2.688-2.689a10.587 10.587 0 00-7.535-3.12 10.587 10.587 0 00-7.535 3.12A10.585 10.585 0 000 14.754c0 2.846 1.109 5.522 3.121 7.534a10.584 10.584 0 007.535 3.122c2.847 0 5.522-1.109 7.535-3.122l7.144-7.143.002-.001.39-.39-.006-.006zm4.565-12.662l3.139 3.139-.162.166-.008-.008-.31.31a2.217 2.217 0 01-3.133-3.133l.31-.31.164-.164zm-7.571 7.571l1.005 1.006.793-.793-1.005-1.005 1.45-1.451 1.006 1.006.793-.793L25.75 6.62l2.301-2.301a3.336 3.336 0 003.2 3.136l-6.324 6.499-3.255-3.255 1.042-1.043zm-5.317 11.839a9.475 9.475 0 01-6.742 2.792 9.474 9.474 0 01-6.742-2.792 9.471 9.471 0 01-2.792-6.742c0-2.547.992-4.942 2.792-6.742a9.47 9.47 0 016.742-2.793c2.547 0 4.941.992 6.742 2.793l6.742 6.742-6.742 6.742z" fill="#000"/></svg>