<svg width="30" height="31" fill="none" xmlns="http://www.w3.org/2000/svg"><path d="M8.85 10.876L0 19.726 10.774 30.5l8.85-8.85L8.852 10.875zm-7.49 8.85l7.49-7.491.763.762-7.491 7.492-.763-.762zm2.883 2.884l1.102-1.102-.68-.68-1.101 1.103-.763-.762 7.492-7.492.762.762-5.428 5.428.68.68 5.428-5.428.762.762-7.491 7.492-.763-.763zm1.442 1.442l7.492-7.491.762.762-7.491 7.492-.763-.763zm1.442 1.442l7.492-7.491.762.762-7.491 7.492-.763-.763zm2.884 2.884l5.428-5.428-.68-.68-5.426 5.43-.763-.763 7.492-7.491.762.762-1.102 1.102.68.68 1.102-1.102.762.762-7.491 7.492-.763-.763z" fill="#000"/><path d="M19.425 22.81L7.691 11.075l1.102-1.103a2.82 2.82 0 011.98-.82c.738 0 1.46.299 1.981.82l1.2 1.2c.32.32.808.452 1.241.344l1.974-.493 2.308 2.308-.493 1.972a1.317 1.317 0 00.344 1.242l1.2 1.2a2.82 2.82 0 01.82 1.982 2.82 2.82 0 01-.82 1.98l-1.102 1.102z" fill="#F0BC5E"/><path d="M26.8.5a3.18 3.18 0 00-2.262.937l-6.414 6.414-.055.055-1.632 3.263 2.894 2.894 3.263-1.632 6.469-6.469A3.176 3.176 0 0030 3.7C30 1.935 28.565.5 26.8.5zm-9.193 10.48l.99-1.978 2.901 2.902-1.978.99-1.913-1.914zm10.776-5.697l-6.074 6.073-3.165-3.165 6.073-6.074a2.24 2.24 0 013.166 3.166z" fill="#000"/><path d="M26.635 5.307a1.444 1.444 0 01-1.442-1.442c0-.795.647-1.442 1.442-1.442.795 0 1.442.647 1.442 1.442 0 .795-.647 1.442-1.442 1.442z" fill="#F0BC5E"/></svg>