<svg width="27" height="31" fill="none" xmlns="http://www.w3.org/2000/svg"><path d="M25.304 20.281l-2.946-2.946-.684.685 2.946 2.945c.35.35.541.814.541 1.31 0 .494-.192.959-.541 1.308l-2.022 2.022c-.35.349-.825.556-1.308.541-.487 0-.963-.197-1.308-.541l-5.892-5.893a2.8 2.8 0 00-1.994-.825c-.753 0-1.46.293-1.992.825l-.91.91-2.332-2.331a1.258 1.258 0 00-.896-.372c-.603 0-1.126.43-1.244 1.02l-.409 2.043.809.808-4.38 4.38A2.521 2.521 0 000 27.962 2.54 2.54 0 002.537 30.5a2.52 2.52 0 001.793-.743l4.38-4.379.808.809 2.043-.409a1.272 1.272 0 001.02-1.244c0-.338-.132-.656-.372-.896l-2.331-2.332.91-.91c.697-.697 1.918-.699 2.618 0l5.892 5.893c.525.524 1.25.825 1.991.825h.005a2.79 2.79 0 001.988-.825l2.022-2.022a2.8 2.8 0 00.825-1.994c0-.753-.293-1.46-.825-1.992zM2.537 29.532a1.57 1.57 0 01-1.11-2.678l.025-.025 2.219 2.22-.025.024a1.56 1.56 0 01-1.11.46zm1.818-1.168l-2.22-2.219 3.671-3.67 2.219 2.219-3.67 3.67zm7.258-3.83a.3.3 0 01-.242.295l-1.534.307-4.473-4.473.307-1.534c.044-.218.35-.31.507-.154l5.347 5.347a.302.302 0 01.088.212z" fill="#000"/><path d="M18.871 19.855a3.96 3.96 0 01-2.82-1.168l-9.56-9.56a3.961 3.961 0 01-1.168-2.82c0-1.066.414-2.067 1.168-2.82l1.818-1.819A3.96 3.96 0 0111.129.5c1.066 0 2.067.415 2.82 1.168l9.56 9.56a3.961 3.961 0 011.168 2.82 3.96 3.96 0 01-1.168 2.82l-1.818 1.819a3.96 3.96 0 01-2.82 1.168z" fill="#F0BC5E"/><path d="M16.276 8.1l.684-.684.967.967-.684.685-.967-.968zm-.968-.968l-3.412-3.411a1.113 1.113 0 00-1.534 0l-.342.342-.685-.684.342-.342a2.038 2.038 0 011.452-.602 2.04 2.04 0 011.452.602l3.411 3.411-.684.684z" fill="#000"/></svg>