<svg width="30" height="31" fill="none" xmlns="http://www.w3.org/2000/svg"><path d="M.675 21.23L20.729 1.175l1.77 1.77L2.446 23l-1.77-1.77z" fill="#F0BC5E"/><path d="M9.27 30.5L0 21.23 20.73.5 30 9.77l-3.68 3.68-.675-.675L28.65 9.77l-7.92-7.92L1.35 21.23l7.92 7.92 3.005-3.005.675.675-3.68 3.68z" fill="#000"/><path d="M26.6 13.055l-4.1-4.1-3.54 3.54 2.527 2.528a.671.671 0 01.198.477c0 .18-.07.35-.198.477l-6.01 6.01a.694.694 0 01-.954 0l-2.528-2.528-1.939 1.94L8.455 23l4.1 4.1a2.802 2.802 0 001.968.815 2.8 2.8 0 001.967-.815L26.6 16.99a2.763 2.763 0 00.815-1.967c0-.744-.29-1.443-.815-1.968z" fill="#F0BC5E"/><path d="M18.005 12.775L22.78 8l.675.675-4.775 4.775-.675-.675zM7.5 23.28l4.775-4.775.675.675-4.775 4.775-.675-.675z" fill="#000"/></svg>