<svg width="35" height="26" viewBox="0 0 35 26" fill="none" xmlns="http://www.w3.org/2000/svg">
<path d="M10.6562 6.34076C6.01685 6.34076 2.24341 10.1147 2.24341 14.7536C2.24341 19.3924 6.01685 23.1664 10.6562 23.1664C15.295 23.1664 19.069 19.3924 19.069 14.7536C19.069 10.1147 15.295 6.34076 10.6562 6.34076ZM10.6562 18.1187C8.79757 18.1187 7.2911 16.6117 7.2911 14.7536C7.2911 12.8955 8.79757 11.3884 10.6562 11.3884C12.5143 11.3884 14.0213 12.8955 14.0213 14.7536C14.0213 16.6117 12.5143 18.1187 10.6562 18.1187Z" fill="#F0BC5E"/>
<path d="M10.6562 10.8276C8.49193 10.8276 6.73022 12.589 6.73022 14.7535C6.73022 16.9178 8.49193 18.6795 10.6562 18.6795C12.8205 18.6795 14.5822 16.9178 14.5822 14.7535C14.5822 12.589 12.8205 10.8276 10.6562 10.8276ZM10.6562 17.5578C9.11002 17.5578 7.85193 16.2997 7.85193 14.7535C7.85193 13.2071 9.11002 11.9493 10.6562 11.9493C12.2024 11.9493 13.4605 13.2071 13.4605 14.7535C13.4605 16.2997 12.2024 17.5578 10.6562 17.5578Z" fill="black"/>
<path d="M25.7213 14.7484L35 5.21386L30.2861 0.5L20.8795 9.90663L18.1913 7.21847C16.1785 5.20592 13.5027 4.09735 10.6562 4.09735C7.80979 4.09735 5.13395 5.20592 3.12112 7.21847C1.10829 9.23076 0 11.9071 0 14.7536C0 17.5997 1.10884 20.2756 3.12112 22.2884C5.13341 24.3015 7.80979 25.4098 10.6562 25.4098C13.5027 25.4098 16.1785 24.301 18.1913 22.2884L25.3354 15.1449L25.3365 15.1438L25.7265 14.7536L25.7213 14.7484ZM30.2861 2.08589L33.4248 5.22454L33.2627 5.39104L33.2547 5.38337L32.9458 5.69228C32.5274 6.11018 31.9714 6.34077 31.3794 6.34077C30.1577 6.34077 29.1644 5.3475 29.1644 4.12583C29.1644 3.53349 29.395 2.97784 29.8126 2.55939L30.1218 2.25048L30.2861 2.08589ZM22.7146 9.65742L23.7202 10.6633L24.5133 9.87021L23.5077 8.86461L24.958 7.414L25.9636 8.41987L26.7567 7.62679L25.7511 6.6212L28.0523 4.32C28.1509 6.02721 29.5363 7.391 31.2526 7.45618L24.9276 13.9547L21.6726 10.6997L22.7146 9.65742ZM17.3983 21.4956C15.5974 23.2959 13.2031 24.2881 10.6562 24.2881C8.10939 24.2881 5.71507 23.2959 3.91421 21.4956C2.11334 19.6953 1.12171 17.3004 1.12171 14.7536C1.12171 12.2067 2.11388 9.81242 3.91421 8.01156C5.71453 6.21041 8.10939 5.21906 10.6562 5.21906C13.2031 5.21906 15.5974 6.21124 17.3983 8.01156L24.1403 14.7536L17.3983 21.4956Z" fill="black"/>
</svg>
