<svg width="30" height="31" viewBox="0 0 30 31" fill="none" xmlns="http://www.w3.org/2000/svg">
<path d="M8.85093 10.8755L0 19.7265L10.7736 30.5001L19.6245 21.6491L8.85093 10.8755ZM1.35937 19.7265L8.85093 12.2349L9.61323 12.9972L2.12167 20.4888L1.35937 19.7265ZM4.24334 22.6104L5.34548 21.5083L4.66579 20.8286L3.56365 21.9308L2.80135 21.1685L10.2929 13.6769L11.0552 14.4392L5.62712 19.8673L6.3068 20.547L11.7349 15.1189L12.4972 15.8812L5.00564 23.3727L4.24334 22.6104ZM5.68532 24.0524L13.1769 16.5609L13.9392 17.3232L6.44762 24.8147L5.68532 24.0524ZM7.12731 25.4944L14.6189 18.0029L15.3812 18.7652L7.88961 26.2567L7.12731 25.4944ZM10.0113 28.3784L15.4394 22.9503L14.7597 22.2706L9.33159 27.6987L8.56929 26.9364L16.0608 19.4448L16.8231 20.2071L15.721 21.3093L16.4007 21.989L17.5028 20.8868L18.2651 21.6491L10.7736 29.1407L10.0113 28.3784Z" fill="black"/>
<path d="M19.4255 22.8095L7.69058 11.0746L8.79272 9.97242C9.31422 9.45092 10.0362 9.15192 10.7736 9.15192C11.511 9.15192 12.2329 9.45092 12.7544 9.97242L13.954 11.1722C14.2732 11.4914 14.7616 11.6245 15.1955 11.5163L17.1693 11.0232L19.4769 13.3307L18.9838 15.3033C18.9577 15.4073 18.9448 15.5134 18.9448 15.6207C18.9448 15.9652 19.0842 16.3022 19.3278 16.5458L20.5276 17.7456C21.0491 18.2671 21.3481 18.989 21.3481 19.7265C21.3481 20.4639 21.0491 21.1858 20.5276 21.7073L19.4255 22.8095Z" fill="#F0BC5E"/>
<path d="M26.8002 0.5C25.9456 0.5 25.1425 0.832567 24.5377 1.43738L18.1243 7.85074L18.0689 7.90566L16.4371 11.1691L19.3307 14.0627L22.5944 12.4309L29.0626 5.96213C29.6675 5.35754 30 4.55488 30 3.69987C30 1.93518 28.5649 0.5 26.8002 0.5ZM17.607 10.98L18.5963 9.0024L21.4981 11.9042L19.5205 12.8935L17.607 10.98ZM28.383 5.28267L22.3094 11.3557L19.1443 8.19058L25.2174 2.11683C25.6405 1.69391 26.2024 1.46132 26.8002 1.46132C28.0347 1.46132 29.0387 2.46536 29.0387 3.69987C29.0387 4.29765 28.8061 4.85951 28.383 5.28267Z" fill="black"/>
<path d="M26.6354 5.30663C25.8402 5.30663 25.1934 4.65957 25.1934 3.86465C25.1934 3.06973 25.8402 2.42267 26.6354 2.42267C27.4303 2.42267 28.0774 3.06973 28.0774 3.86465C28.0774 4.65957 27.4303 5.30663 26.6354 5.30663Z" fill="#F0BC5E"/>
</svg>
