<svg width="27" height="31" viewBox="0 0 27 31" fill="none" xmlns="http://www.w3.org/2000/svg">
<path d="M25.304 20.2811L22.3582 17.3353L21.674 18.0196L24.6198 20.9653C24.9692 21.3147 25.1613 21.7792 25.1613 22.2752C25.1613 22.7692 24.9692 23.2337 24.6198 23.5831L22.5983 25.6046C22.2488 25.954 21.7732 26.1608 21.2899 26.1461C20.8031 26.1461 20.3268 25.9488 19.9824 25.6046L14.0899 19.7122C13.5576 19.1798 12.8502 18.8871 12.0958 18.8871C11.3429 18.8871 10.6355 19.1798 10.1036 19.7122L9.19355 20.6222L6.86232 18.291C6.62275 18.051 6.30426 17.9194 5.96569 17.9194C5.36322 17.9194 4.84013 18.3482 4.72199 18.9384L4.31326 20.9818L5.12176 21.7903L0.742818 26.1693C0.263672 26.6489 0 27.2856 0 27.9635C0 29.3619 1.13809 30.5 2.53654 30.5C3.21391 30.5 3.85112 30.2363 4.33027 29.7572L8.7092 25.3783L9.5177 26.1868L11.5612 25.778C12.1518 25.6599 12.5806 25.1368 12.5806 24.5343C12.5806 24.1958 12.449 23.8777 12.209 23.6377L9.87777 21.3065L10.7879 20.3964C11.4846 19.6992 12.7059 19.697 13.4057 20.3964L19.2981 26.2888C19.8226 26.8133 20.548 27.1139 21.2894 27.1139H21.2936C22.0452 27.1134 22.7511 26.8207 23.2825 26.2888L25.304 24.2673C25.8363 23.735 26.129 23.0277 26.129 22.2733C26.129 21.5203 25.8363 20.8129 25.304 20.2811ZM2.53654 29.5323C1.67134 29.5323 0.967742 28.8287 0.967742 27.9635C0.967742 27.5446 1.13076 27.1503 1.42704 26.854L1.45161 26.8294L3.67061 29.0484L3.64604 29.073C3.34977 29.3693 2.95544 29.5323 2.53654 29.5323ZM4.35484 28.3642L2.13584 26.1452L5.80645 22.475L8.02498 24.6936L4.35484 28.3642ZM11.6129 24.5343C11.6129 24.677 11.5113 24.8015 11.3714 24.8289L9.83666 25.1359L5.36416 20.6634L5.67107 19.1286C5.71454 18.9112 6.02169 18.8184 6.1781 18.9752L11.5252 24.3224C11.581 24.3782 11.6129 24.4554 11.6129 24.5343Z" fill="black"/>
<path d="M18.871 19.8548C17.8054 19.8548 16.8039 19.4402 16.0509 18.6867L6.49067 9.12651C5.73722 8.37306 5.32257 7.37201 5.32257 6.30645C5.32257 5.2409 5.73722 4.23984 6.49067 3.48639L8.30896 1.66809C9.06194 0.914645 10.0635 0.5 11.129 0.5C12.1946 0.5 13.1956 0.914645 13.9491 1.66809L23.5093 11.2283C24.2628 11.9818 24.6774 12.9828 24.6774 14.0484C24.6774 15.1139 24.2628 16.115 23.5093 16.8684L21.691 18.6867C20.9376 19.4402 19.9365 19.8548 18.871 19.8548Z" fill="#F0BC5E"/>
<path d="M16.2758 8.10018L16.96 7.41595L17.9275 8.38346L17.2433 9.06792L16.2758 8.10018Z" fill="black"/>
<path d="M15.3083 7.13244L11.8964 3.72053C11.4872 3.31132 10.7709 3.31132 10.3617 3.72053L10.0196 4.06264L9.33533 3.37866L9.67744 3.03654C10.0649 2.64883 10.5804 2.43549 11.1291 2.43549C11.6777 2.43549 12.1932 2.64883 12.5807 3.03654L15.9923 6.44821L15.3083 7.13244Z" fill="black"/>
</svg>
