<svg width="30" height="31" viewBox="0 0 30 31" fill="none" xmlns="http://www.w3.org/2000/svg">
<path d="M0.674927 21.2297L20.7294 1.17523L22.4998 2.94555L2.44525 23.0001L0.674927 21.2297Z" fill="#F0BC5E"/>
<path d="M9.2701 30.5001L0 21.23L20.73 0.5L30.0001 9.7701L26.32 13.4502L25.6448 12.775L28.6496 9.7701L20.73 1.85041L1.35041 21.23L9.2701 29.1496L12.275 26.1448L12.9502 26.82L9.2701 30.5001Z" fill="black"/>
<path d="M26.5997 13.0548L22.5 8.95502L18.9598 12.4952L21.4872 15.0225C21.6147 15.1501 21.6849 15.3196 21.6849 15.5C21.6849 15.6805 21.6147 15.85 21.4872 15.9775L15.4775 21.9868C15.2238 22.2407 14.775 22.2402 14.5225 21.9868L11.9951 19.4594L10.056 21.3985L8.45496 23.0001L12.5547 27.0998C13.0728 27.6179 13.7899 27.9149 14.5225 27.9149C15.2551 27.9149 15.9722 27.6179 16.4903 27.0998L26.5997 16.9903C27.1255 16.4651 27.4148 15.7661 27.4148 15.0225C27.4148 14.279 27.1255 13.58 26.5997 13.0548Z" fill="#F0BC5E"/>
<path d="M18.0046 12.7749L22.7796 8L23.4548 8.67544L18.6798 13.4501L18.0046 12.7749Z" fill="black"/>
<path d="M7.49976 23.2796L12.2747 18.5049L12.9499 19.1801L8.17496 23.955L7.49976 23.2796Z" fill="black"/>
</svg>
