<svg width="31" height="31" fill="none" xmlns="http://www.w3.org/2000/svg"><path d="M28.493 23.632a2.242 2.242 0 00-1.487-1.991v-11.14l.7.424a1.502 1.502 0 002.243-.858 1.5 1.5 0 00-.652-1.686L15.803.231a1.503 1.503 0 00-1.59-.006L.7 8.385a1.5 1.5 0 001.59 2.544l.71-.428v11.14a2.242 2.242 0 00-1.487 1.99A2.253 2.253 0 000 25.755c0 .507.176.998.496 1.39a.997.997 0 00-.496.86v1a1 1 0 001 1h28.005a1 1 0 001-1v-1a1 1 0 00-.497-.86c.32-.392.496-.883.497-1.39a2.253 2.253 0 00-1.513-2.122zm-.988.121a.69.69 0 01-.011.15v.027c0 .009-.008.016-.009.025 0 .025.002.05.006.074a.337.337 0 00.041.189.423.423 0 00.042.082.48.48 0 00.066.072.504.504 0 00.07.06.437.437 0 00.09.043.5.5 0 00.067.03.287.287 0 00.036.004c.006 0 .01.005.015.005a1.25 1.25 0 011.088 1.24 1.258 1.258 0 01-1.25 1.25h-5.502c-.69 0-1.25-.56-1.25-1.25 0-.334.134-.653.373-.886.153-.156.347-.267.559-.321h.003a.498.498 0 00.136-.059c.008-.004.011-.012.018-.016a.499.499 0 00.076-.072.476.476 0 00.059-.068.488.488 0 00.039-.087.526.526 0 00.03-.09 1.037 1.037 0 00-.003-.193v-.024a.458.458 0 00-.033-.069.512.512 0 00-.026-.07 1.497 1.497 0 112.662-1.341c.073.172.11.358.108.545 0 .264-.07.523-.203.75a.5.5 0 10.866.5 2.467 2.467 0 00.292-1.71c.097-.025.196-.039.295-.04.69 0 1.25.56 1.25 1.25zm-6.5-2.25v-2h1v1.513a2.5 2.5 0 00-.748.912.494.494 0 01-.253-.425zm2.5-5a.5.5 0 01.5.5v1.5h-1v-2h.5zm0 4c-.168 0-.336.016-.5.05v-1.05h1v1.056a2.495 2.495 0 00-.5-.056zm-1.5-2h-1v-1.5a.5.5 0 01.5-.5h.5v2zM1.767 10.078a.5.5 0 01-.54-.842l13.51-8.16a.496.496 0 01.266-.077c.098 0 .194.029.277.081l13.494 8.152a.5.5 0 11-.54.842L15.262 2.226a.5.5 0 00-.518 0L1.767 10.078zm13.236-6.84l11.002 6.657V21.52a2.218 2.218 0 00-.431.094 2.46 2.46 0 00-.57-.606v-4.006a1.5 1.5 0 00-1.5-1.5h-2a1.5 1.5 0 00-1.5 1.5v4.5a1.497 1.497 0 001.01 1.412c0 .03-.01.059-.01.09.002.27.048.54.136.796-.173.098-.332.22-.472.362a2.24 2.24 0 00-.283 2.842h-1.381V16.502a2 2 0 00-2-2h-4a2 2 0 00-2.001 2v10.502H9.62c.25-.37.382-.805.381-1.25a2.212 2.212 0 00-.657-1.585 2.178 2.178 0 00-.48-.368c.09-.257.136-.526.137-.798 0-.031-.004-.06-.005-.09a1.5 1.5 0 001.005-1.41v-4.5a1.5 1.5 0 00-1.5-1.501h-2a1.5 1.5 0 00-1.5 1.5v4.01a2.56 2.56 0 00-.567.6A2.238 2.238 0 004 21.52V9.895l11.002-6.657zm3 23.766h-6V16.502a1 1 0 011-1h4a1 1 0 011 1v10.502zm-9.5-10.502a.5.5 0 01.5.5v1.5h-1v-2h.5zm.25 5.423a2.5 2.5 0 00-.75-.905v-1.517h1v2a.493.493 0 01-.25.422zm-1.751-3.422h-1v-1.5a.5.5 0 01.5-.5h.5v2zm-1 1h1v1.06a2.547 2.547 0 00-1 0v-1.06zm-3.912 5.01c.005 0 .01-.003.015-.004a.243.243 0 00.036-.006.507.507 0 00.067-.03.49.49 0 00.09-.041.477.477 0 00.071-.064.507.507 0 00.065-.069.516.516 0 00.042-.084.335.335 0 00.04-.189.484.484 0 00.006-.073c0-.009-.007-.016-.008-.025-.002-.009 0-.017 0-.026a.787.787 0 01-.013-.149c0-.69.56-1.25 1.25-1.25.1.001.2.015.296.04a2.445 2.445 0 00.291 1.71.5.5 0 10.867-.5 1.484 1.484 0 01-.203-.75 1.389 1.389 0 01.114-.56 1.496 1.496 0 012.886.56c.001.281-.078.557-.228.794a.464.464 0 00-.027.071.438.438 0 00-.033.069v.023a1.05 1.05 0 00-.003.194.56.56 0 00.03.09c.01.03.024.06.04.087a.47.47 0 00.059.067.432.432 0 00.076.072c.006.005.01.013.017.017a.498.498 0 00.136.059h.003a1.2 1.2 0 01.566.327 1.25 1.25 0 01-.886 2.13h-5.5A1.258 1.258 0 011 25.754a1.25 1.25 0 011.089-1.24zM1 28.005h8.001v1h-8v-1zm9.001 1v-1h10.002v1H10.002zm11.002 0v-1h8.002v1h-8.002z" fill="#fff"/><path d="M17.004 22.003a.5.5 0 11-1 0 .5.5 0 011 0zm-4.001-8.501h4a1 1 0 001-1V8.5a3 3 0 00-6 0v4.001a1 1 0 001 1zm0-3.001h1.5v2h-1.5v-2zm2.5 2v-2h1.5v2h-1.5zm1.5-4v1h-1.5V6.57a2 2 0 011.5 1.93zm-2.5-1.93v2.93h-1.5v-1a2 2 0 011.5-1.93z" fill="#fff"/></svg>